  <svg width="17" height="17" viewBox="0 0 17 17" fill="none" xmlns="http://www.w3.org/2000/svg">
                                            <path d="M8.06452 16.129C6.46951 16.129 4.91032 15.6561 3.58411 14.7699C2.25791 13.8838 1.22426 12.6243 0.613878 11.1507C0.00349426 9.67708 -0.15621 8.05557 0.154961 6.49121C0.466132 4.92685 1.2342 3.48989 2.36205 2.36205C3.48989 1.2342 4.92685 0.466132 6.49121 0.154961C8.05557 -0.15621 9.67708 0.00349426 11.1507 0.613878C12.6243 1.22426 13.8838 2.25791 14.7699 3.58411C15.6561 4.91032 16.129 6.46951 16.129 8.06452C16.129 10.2034 15.2794 12.2546 13.767 13.767C12.2546 15.2794 10.2034 16.129 8.06452 16.129ZM8.06452 1.46628C6.75951 1.46628 5.48381 1.85326 4.39873 2.57828C3.31366 3.30331 2.46795 4.33381 1.96854 5.53948C1.46914 6.74515 1.33847 8.07184 1.59306 9.35177C1.84766 10.6317 2.47608 11.8074 3.39886 12.7302C4.32164 13.653 5.49733 14.2814 6.77727 14.536C8.0572 14.7906 9.38389 14.6599 10.5896 14.1605C11.7952 13.6611 12.8257 12.8154 13.5508 11.7303C14.2758 10.6452 14.6628 9.36953 14.6628 8.06452C14.6628 6.31456 13.9676 4.63627 12.7302 3.39886C11.4928 2.16145 9.81448 1.46628 8.06452 1.46628Z" fill="white" />
                                            <path d="M4.03223 8.06451C4.03223 7.61912 4.39329 7.25806 4.83868 7.25806H11.2903C11.7357 7.25806 12.0967 7.61912 12.0967 8.06451C12.0967 8.5099 11.7357 8.87096 11.2903 8.87096H4.83868C4.39329 8.87096 4.03223 8.5099 4.03223 8.06451Z" fill="white" />
                                        </svg>