<svg width="22" height="22" viewBox="0 0 22 22" fill="none" xmlns="http://www.w3.org/2000/svg">
<path d="M14.3231 7.92343L13.9088 17.154M8.17554 17.154L7.76123 7.92343M19.6971 4.63121C20.1066 4.68454 20.5138 4.74095 20.9209 4.80146M19.6971 4.63121L18.4183 18.8698C18.3661 19.4495 18.0603 19.991 17.5621 20.3859C17.064 20.7809 16.4101 21.0002 15.7313 21H6.35307C5.67425 21.0002 5.02037 20.7809 4.52219 20.3859C4.02401 19.991 3.71825 19.4495 3.66606 18.8698L2.38721 4.63121M19.6971 4.63121C18.3151 4.45225 16.926 4.31644 15.5325 4.22404M2.38721 4.63121C1.9777 4.68351 1.57057 4.73992 1.16345 4.80043M2.38721 4.63121C3.7692 4.45226 5.15832 4.31644 6.55184 4.22404M15.5325 4.22404V3.28458C15.5325 2.07435 14.4428 1.06515 13.0299 1.0272C11.7051 0.990933 10.3793 0.990933 9.05445 1.0272C7.64149 1.06515 6.55184 2.07538 6.55184 3.28458V4.22404M15.5325 4.22404C12.5434 4.02617 9.54093 4.02617 6.55184 4.22404" stroke="#D9513D" stroke-width="2" stroke-linecap="round" stroke-linejoin="round"/>
</svg>
