<?xml version="1.0" encoding="UTF-8"?>
<!DOCTYPE svg PUBLIC "-//W3C//DTD SVG 1.1//EN" "http://www.w3.org/Graphics/SVG/1.1/DTD/svg11.dtd">
<svg xmlns="http://www.w3.org/2000/svg" version="1.1" width="638px" height="688px" style="shape-rendering:geometricPrecision; text-rendering:geometricPrecision; image-rendering:optimizeQuality; fill-rule:evenodd; clip-rule:evenodd" xmlns:xlink="http://www.w3.org/1999/xlink">
<g><path style="opacity:0.966" fill="#45ffb6" d="M 451.5,306.5 C 357.788,235.456 263.788,164.789 169.5,94.5C 170.334,93.2521 171.667,92.5854 173.5,92.5C 180.149,91.5263 186.816,90.693 193.5,90C 249.5,89.3333 305.5,89.3333 361.5,90C 380.455,91.5881 398.622,96.0881 416,103.5C 442.271,117.271 467.104,133.271 490.5,151.5C 493.41,151.848 495.41,153.348 496.5,156C 503.213,160.695 510.213,165.028 517.5,169C 519.843,170.667 521.843,172.667 523.5,175C 526.777,176.302 529.777,177.969 532.5,180C 536.136,182.962 539.802,185.962 543.5,189C 545.441,190.903 547.774,191.736 550.5,191.5C 550.281,192.675 550.614,193.675 551.5,194.5C 557.544,199.059 563.877,203.225 570.5,207C 571.682,209.261 573.349,211.095 575.5,212.5C 579.956,215.643 584.623,218.31 589.5,220.5C 589.861,227.973 589.028,235.306 587,242.5C 583.325,252.849 579.492,263.182 575.5,273.5C 573.921,276.755 572.255,279.921 570.5,283C 571.791,285.09 571.124,286.424 568.5,287C 568.833,287.333 569.167,287.667 569.5,288C 566.012,293.253 564.345,299.086 564.5,305.5C 526.838,306.248 489.171,306.581 451.5,306.5 Z M 316.5,142.5 C 316.735,141.903 317.235,141.57 318,141.5C 336.926,147.808 356.093,153.308 375.5,158C 382.833,160.667 390.167,163.333 397.5,166C 424.986,178.907 452.653,191.574 480.5,204C 489.833,209 499.167,214 508.5,219C 505.486,219.128 502.486,219.128 499.5,219C 483.867,225.324 468.2,231.658 452.5,238C 438.346,242.418 423.846,245.251 409,246.5C 370.141,242.912 343.808,222.912 330,186.5C 326.035,174.344 322.702,162.01 320,149.5C 319.102,146.931 317.935,144.598 316.5,142.5 Z M 519.5,228.5 C 535.673,227.516 542.007,235.183 538.5,251.5C 537.718,254.076 536.218,256.076 534,257.5C 533.667,257.167 533.333,256.833 533,256.5C 532,257.833 531,259.167 530,260.5C 522.214,261.786 515.881,259.12 511,252.5C 508.423,242.386 511.257,234.386 519.5,228.5 Z"/></g>
<g><path style="opacity:0.988" fill="#45ffb4" d="M 169.5,94.5 C 263.788,164.789 357.788,235.456 451.5,306.5C 445.5,306.5 439.5,306.5 433.5,306.5C 360.833,251.5 288.167,196.5 215.5,141.5C 214.791,140.596 213.791,140.263 212.5,140.5C 193.872,126.178 175.205,111.845 156.5,97.5C 159.365,96.0205 162.198,95.0205 165,94.5C 166.299,94.9662 167.799,94.9662 169.5,94.5 Z"/></g>
<g><path style="opacity:0.945" fill="#43ffb1" d="M 156.5,97.5 C 175.205,111.845 193.872,126.178 212.5,140.5C 196.148,142.084 180.814,146.751 166.5,154.5C 150.652,142.408 134.985,130.074 119.5,117.5C 118.833,117.5 118.167,117.5 117.5,117.5C 119.32,115.552 121.654,114.552 124.5,114.5C 124.5,113.5 124.5,112.5 124.5,111.5C 125.873,111.657 127.207,111.49 128.5,111C 136.101,108.087 143.267,104.253 150,99.5C 152.319,100.011 154.486,99.3443 156.5,97.5 Z"/></g>
<g><path style="opacity:0.945" fill="#40ffab" d="M 117.5,117.5 C 118.167,117.5 118.833,117.5 119.5,117.5C 134.985,130.074 150.652,142.408 166.5,154.5C 161.641,157.17 157.141,160.503 153,164.5C 152.667,164.167 152.333,163.833 152,163.5C 150.265,165.611 148.432,167.611 146.5,169.5C 142.879,170.826 139.879,172.826 137.5,175.5C 122.319,164.075 107.319,152.408 92.5,140.5C 92.9371,138.926 93.9371,137.759 95.5,137C 99.8837,132.571 104.55,127.571 109.5,122C 110.449,121.383 111.282,121.549 112,122.5C 112.979,119.78 114.812,118.114 117.5,117.5 Z"/></g>
<g><path style="opacity:0.957" fill="#3fffa7" d="M 92.5,140.5 C 107.319,152.408 122.319,164.075 137.5,175.5C 137.167,176.167 136.833,176.833 136.5,177.5C 121.012,165.59 105.345,153.923 89.5,142.5C 90.2905,141.599 91.2905,140.932 92.5,140.5 Z"/></g>
<g><path style="opacity:0.985" fill="#43ffb1" d="M 215.5,141.5 C 288.167,196.5 360.833,251.5 433.5,306.5C 411.833,306.5 390.167,306.5 368.5,306.5C 318.384,268.269 268.051,230.269 217.5,192.5C 214.266,176.773 213.099,160.773 214,144.5C 214.232,143.263 214.732,142.263 215.5,141.5 Z"/></g>
<g><path style="opacity:0.944" fill="#3dffa5" d="M 89.5,142.5 C 105.345,153.923 121.012,165.59 136.5,177.5C 130.73,184.924 125.397,192.59 120.5,200.5C 104.315,188.247 87.9815,176.247 71.5,164.5C 74.0384,162.026 76.0384,159.026 77.5,155.5C 79.3211,153.757 81.3211,152.257 83.5,151C 82.5494,150.282 82.3828,149.449 83,148.5C 85.0367,146.294 87.2034,144.294 89.5,142.5 Z"/></g>
<g><path style="opacity:0.945" fill="#3aff9f" d="M 71.5,164.5 C 87.9815,176.247 104.315,188.247 120.5,200.5C 115.42,207.358 111.753,215.358 109.5,224.5C 109.253,225.713 108.586,226.38 107.5,226.5C 91.8093,214.469 76.1427,202.469 60.5,190.5C 60.028,188.252 60.6947,186.085 62.5,184C 62.0426,183.586 61.7093,183.086 61.5,182.5C 64.0334,180.606 65.7001,178.106 66.5,175C 65.6548,173.442 66.3215,172.442 68.5,172C 68.1667,171.667 67.8333,171.333 67.5,171C 68.8333,170 70.1667,169 71.5,168C 71.7986,166.927 71.7986,165.76 71.5,164.5 Z"/></g>
<g><path style="opacity:0.787" fill="#3fffaa" d="M 183.5,209.5 C 175.767,204.306 168.433,198.639 161.5,192.5C 162.392,190.054 163.892,189.388 166,190.5C 169.515,186.652 173.348,183.152 177.5,180C 179.473,179.505 181.473,179.338 183.5,179.5C 182.218,189.498 182.218,199.498 183.5,209.5 Z"/></g>
<g><path style="opacity:0.908" fill="#fefffe" d="M 368.5,184.5 C 389.916,193.038 411.249,201.872 432.5,211C 433.91,211.368 434.91,212.201 435.5,213.5C 414.563,224.82 395.397,222.487 378,206.5C 375.083,202.334 372.416,198.001 370,193.5C 369.304,190.522 368.804,187.522 368.5,184.5 Z"/></g>
<g><path style="opacity:0.938" fill="#39ff9b" d="M 60.5,190.5 C 76.1427,202.469 91.8093,214.469 107.5,226.5C 107.5,227.5 107.5,228.5 107.5,229.5C 91.3149,217.247 74.9815,205.247 58.5,193.5C 57.0857,191.402 57.7524,190.402 60.5,190.5 Z"/></g>
<g><path style="opacity:0.917" fill="#3fffa7" d="M 161.5,192.5 C 168.433,198.639 175.767,204.306 183.5,209.5C 183.5,210.5 183.5,211.5 183.5,212.5C 175.5,206.833 167.5,201.167 159.5,195.5C 159.932,194.29 160.599,193.29 161.5,192.5 Z"/></g>
<g><path style="opacity:0.954" fill="#40ffab" d="M 217.5,192.5 C 268.051,230.269 318.384,268.269 368.5,306.5C 348.701,307.212 329.368,304.879 310.5,299.5C 303.152,296.166 295.819,292.832 288.5,289.5C 288.027,288.094 287.027,287.427 285.5,287.5C 276.094,279.098 266.094,271.431 255.5,264.5C 254.833,264.5 254.5,264.167 254.5,263.5C 252.777,261.782 250.777,260.449 248.5,259.5C 247.738,257.738 246.404,256.738 244.5,256.5C 241.183,252.016 237.683,247.683 234,243.5C 230.907,237.649 227.741,231.816 224.5,226C 224.833,225.667 225.167,225.333 225.5,225C 224.458,222.443 223.125,220.11 221.5,218C 221.833,217.667 222.167,217.333 222.5,217C 221.48,213.081 220.147,209.248 218.5,205.5C 218.608,204.558 218.941,203.725 219.5,203C 218.692,202.692 218.025,202.192 217.5,201.5C 217.872,198.617 217.872,195.617 217.5,192.5 Z"/></g>
<g><path style="opacity:0.954" fill="#36ff98" d="M 58.5,193.5 C 74.9815,205.247 91.3149,217.247 107.5,229.5C 104.292,239.467 102.625,249.8 102.5,260.5C 85.1667,247.833 67.8333,235.167 50.5,222.5C 50.7921,215.482 51.9588,208.482 54,201.5C 55.6048,198.809 57.1048,196.142 58.5,193.5 Z"/></g>
<g><path style="opacity:0.91" fill="#3cffa5" d="M 159.5,195.5 C 167.5,201.167 175.5,206.833 183.5,212.5C 186.523,228.238 191.19,243.572 197.5,258.5C 178.588,245.216 160.255,231.216 142.5,216.5C 144.648,216.611 144.981,215.944 143.5,214.5C 145.762,213.655 146.429,212.322 145.5,210.5C 146.376,209.749 147.376,209.249 148.5,209C 148.043,208.586 147.709,208.086 147.5,207.5C 149.762,206.655 150.429,205.322 149.5,203.5C 151.958,202.876 153.624,201.376 154.5,199C 153.66,197.334 154.16,197.167 156,198.5C 156.967,197.322 157.467,195.989 157.5,194.5C 158.183,194.863 158.85,195.196 159.5,195.5 Z"/></g>
<g><path style="opacity:0.924" fill="#39ff9e" d="M 142.5,216.5 C 160.255,231.216 178.588,245.216 197.5,258.5C 199.189,262.369 201.522,265.869 204.5,269C 204.167,269.333 203.833,269.667 203.5,270C 210.628,279.642 217.962,288.975 225.5,298C 232.422,302.918 238.756,308.584 244.5,315C 247.272,315.271 248.938,316.771 249.5,319.5C 254.364,323.536 259.031,327.703 263.5,332C 266.492,333.606 269.492,335.272 272.5,337C 273.167,338 273.833,339 274.5,340C 277.789,342.271 281.122,344.605 284.5,347C 286.345,348.128 288.345,348.628 290.5,348.5C 290.5,349.5 290.5,350.5 290.5,351.5C 296.332,353.632 301.666,356.799 306.5,361C 309.991,362.37 313.325,363.87 316.5,365.5C 316.657,366.873 316.49,368.207 316,369.5C 314.415,370.376 313.415,371.709 313,373.5C 312,374.833 311,374.833 310,373.5C 308.955,374.373 308.122,375.373 307.5,376.5C 250.185,333.524 192.852,290.524 135.5,247.5C 134.908,243.149 135.574,238.816 137.5,234.5C 136.622,232.252 136.955,230.085 138.5,228C 138.167,227.667 137.833,227.333 137.5,227C 139.602,223.632 141.269,220.132 142.5,216.5 Z"/></g>
<g><path style="opacity:0.953" fill="#33ff92" d="M 50.5,222.5 C 67.8333,235.167 85.1667,247.833 102.5,260.5C 102.187,272.376 103.521,284.043 106.5,295.5C 87.0119,280.59 67.3452,265.923 47.5,251.5C 48.4387,241.682 49.4387,232.015 50.5,222.5 Z"/></g>
<g><path style="opacity:0.99" fill="#39ff9b" d="M 135.5,247.5 C 192.852,290.524 250.185,333.524 307.5,376.5C 306.71,377.401 305.71,378.068 304.5,378.5C 248.455,335.789 192.122,293.456 135.5,251.5C 135.5,250.167 135.5,248.833 135.5,247.5 Z"/></g>
<g><path style="opacity:0.954" fill="#32fe8e" d="M 47.5,251.5 C 67.3452,265.923 87.0119,280.59 106.5,295.5C 107.619,298.797 108.619,302.131 109.5,305.5C 88.5699,290.577 67.9032,275.243 47.5,259.5C 47.5,256.833 47.5,254.167 47.5,251.5 Z"/></g>
<g><path style="opacity:0.981" fill="#36ff98" d="M 135.5,251.5 C 192.122,293.456 248.455,335.789 304.5,378.5C 302.291,382.059 299.624,385.393 296.5,388.5C 295.808,387.975 295.308,387.308 295,386.5C 291.921,390.742 288.421,394.409 284.5,397.5C 235.167,360.833 185.833,324.167 136.5,287.5C 135.728,278.951 134.728,270.451 133.5,262C 133.667,259.167 133.833,256.333 134,253.5C 134.278,252.584 134.778,251.918 135.5,251.5 Z"/></g>
<g><path style="opacity:0.039" fill="#3fffa7" d="M 244.5,256.5 C 246.404,256.738 247.738,257.738 248.5,259.5C 246.596,259.262 245.262,258.262 244.5,256.5 Z"/></g>
<g><path style="opacity:0.94" fill="#30ff8b" d="M 47.5,259.5 C 67.9032,275.243 88.5699,290.577 109.5,305.5C 112.655,313.319 116.322,320.485 120.5,327C 120.167,327.333 119.833,327.667 119.5,328C 121.868,332.978 125.201,337.811 129.5,342.5C 102.852,322.858 76.185,303.191 49.5,283.5C 47.9124,275.723 47.2457,267.723 47.5,259.5 Z"/></g>
<g><path style="opacity:0.124" fill="#3fffa7" d="M 248.5,259.5 C 250.777,260.449 252.777,261.782 254.5,263.5C 251.122,264.109 249.122,262.776 248.5,259.5 Z"/></g>
<g><path style="opacity:0.36" fill="#3effa7" d="M 255.5,264.5 C 266.094,271.431 276.094,279.098 285.5,287.5C 279.665,285.171 274.498,281.837 270,277.5C 269.667,277.833 269.333,278.167 269,278.5C 266.328,274.61 263.161,271.944 259.5,270.5C 258.019,268.481 256.686,266.481 255.5,264.5 Z"/></g>
<g><path style="opacity:0.912" fill="#2dfe85" d="M 49.5,283.5 C 76.185,303.191 102.852,322.858 129.5,342.5C 136.893,353.809 145.56,363.975 155.5,373C 155.167,373.333 154.833,373.667 154.5,374C 165.273,384.169 176.273,394.169 187.5,404C 201.093,414.552 215.093,424.885 229.5,435C 241.183,442.509 253.183,449.509 265.5,456C 266.167,457 266.833,458 267.5,459C 284.806,470.459 302.139,482.126 319.5,494C 320.167,495 320.833,496 321.5,497C 330.78,503.851 340.113,510.517 349.5,517C 361.835,529.218 374.168,540.385 386.5,550.5C 386.351,551.552 386.517,552.552 387,553.5C 390.688,558.688 395.188,563.022 400.5,566.5C 401.458,568.624 402.625,570.624 404,572.5C 410.076,578.404 415.576,584.737 420.5,591.5C 299.185,500.524 177.852,409.524 56.5,318.5C 52.6212,307.127 50.2878,295.461 49.5,283.5 Z"/></g>
<g><path style="opacity:0.972" fill="#33ff92" d="M 136.5,287.5 C 185.833,324.167 235.167,360.833 284.5,397.5C 281.068,402.101 277.068,406.268 272.5,410C 272.957,410.414 273.291,410.914 273.5,411.5C 271.149,413.192 268.815,414.858 266.5,416.5C 230.712,388.44 194.379,361.106 157.5,334.5C 147.208,320.285 140.208,304.618 136.5,287.5 Z"/></g>
<g><path style="opacity:0.06" fill="#3fffa7" d="M 285.5,287.5 C 287.027,287.427 288.027,288.094 288.5,289.5C 286.973,289.573 285.973,288.906 285.5,287.5 Z"/></g>
<g><path style="opacity:0.987" fill="#2cfe82" d="M 56.5,318.5 C 177.852,409.524 299.185,500.524 420.5,591.5C 423.42,594.23 425.42,597.563 426.5,601.5C 426.36,603.03 425.693,604.03 424.5,604.5C 303.205,512.845 181.872,421.178 60.5,329.5C 57.8945,325.999 56.5612,322.332 56.5,318.5 Z"/></g>
<g><path style="opacity:0.941" fill="#2afe7f" d="M 60.5,329.5 C 181.872,421.178 303.205,512.845 424.5,604.5C 422.61,604.703 421.11,604.037 420,602.5C 419.667,602.833 419.333,603.167 419,603.5C 414.062,598.266 408.228,594.099 401.5,591C 400.874,590.25 400.374,589.416 400,588.5C 399.667,588.833 399.333,589.167 399,589.5C 394.174,585.78 389.007,582.613 383.5,580C 382.55,577.09 380.55,575.923 377.5,576.5C 377.5,575.5 377.5,574.5 377.5,573.5C 376.127,573.657 374.793,573.49 373.5,573C 371.135,570.917 368.801,568.75 366.5,566.5C 347.945,555.938 329.611,545.104 311.5,534C 310.207,533.51 308.873,533.343 307.5,533.5C 307.5,532.5 307.5,531.5 307.5,530.5C 304.656,529.828 302.156,528.495 300,526.5C 299.667,526.833 299.333,527.167 299,527.5C 297.442,525.641 295.609,524.141 293.5,523C 287.348,520.741 281.682,517.741 276.5,514C 276.833,513.667 277.167,513.333 277.5,513C 275.5,512.333 273.5,511.667 271.5,511C 263.535,506.625 255.868,501.791 248.5,496.5C 247.205,495.512 245.872,494.512 244.5,493.5C 191.524,453.531 138.524,413.531 85.5,373.5C 84.6255,371.31 82.9589,370.31 80.5,370.5C 75.021,358.986 69.021,347.653 62.5,336.5C 61.5793,334.223 60.9126,331.89 60.5,329.5 Z"/></g>
<g><path style="opacity:0.929" fill="#32fe8e" d="M 157.5,334.5 C 194.379,361.106 230.712,388.44 266.5,416.5C 266.804,417.15 267.137,417.817 267.5,418.5C 265.814,419.857 264.148,421.19 262.5,422.5C 235.141,401.147 207.475,380.147 179.5,359.5C 175.03,354.198 170.03,349.364 164.5,345C 164.833,344.667 165.167,344.333 165.5,344C 162.276,341.278 159.609,338.112 157.5,334.5 Z"/></g>
<g><path style="opacity:0.52" fill="#31fe8d" d="M 179.5,359.5 C 207.475,380.147 235.141,401.147 262.5,422.5C 261.749,423.573 260.749,423.74 259.5,423C 255.382,419.857 251.382,416.69 247.5,413.5C 243.855,410.852 239.855,408.852 235.5,407.5C 235.5,406.5 235.5,405.5 235.5,404.5C 232.757,403.612 230.09,402.445 227.5,401C 220.35,395.148 213.016,389.815 205.5,385C 199.088,378.588 192.588,372.088 186,365.5C 185.259,366.641 184.425,366.641 183.5,365.5C 182.359,363.192 180.692,361.359 178.5,360C 178.728,359.601 179.062,359.435 179.5,359.5 Z"/></g>
<g><path style="opacity:0.795" fill="#28ff7b" d="M 85.5,373.5 C 138.524,413.531 191.524,453.531 244.5,493.5C 240.003,492.07 235.67,490.404 231.5,488.5C 231.5,487.5 231.5,486.5 231.5,485.5C 229.436,485.313 227.436,484.813 225.5,484C 218.982,479.244 212.315,474.744 205.5,470.5C 201.172,468.701 197.172,466.201 193.5,463C 191.26,462.023 188.927,461.523 186.5,461.5C 186.5,460.5 186.5,459.5 186.5,458.5C 183.511,457.702 180.845,456.202 178.5,454C 177.207,453.51 175.873,453.343 174.5,453.5C 174.5,452.5 174.5,451.5 174.5,450.5C 172.692,450.509 171.025,450.009 169.5,449C 169.833,448.667 170.167,448.333 170.5,448C 162.825,443.653 155.159,439.32 147.5,435C 143.327,430.33 138.661,426.163 133.5,422.5C 132.271,421.719 130.938,421.219 129.5,421C 118.397,409.944 107.063,399.111 95.5,388.5C 95.7093,387.914 96.0426,387.414 96.5,387C 93.2524,384.919 90.9191,382.086 89.5,378.5C 87.9716,377.139 86.3049,375.972 84.5,375C 85.056,374.617 85.3893,374.117 85.5,373.5 Z"/></g>
<g><path style="opacity:0.8" fill="#39ff9d" d="M 419.5,461.5 C 391.525,440.853 363.859,419.853 336.5,398.5C 338.518,397.142 340.351,395.475 342,393.5C 342.914,394.654 343.747,394.487 344.5,393C 346.473,392.505 348.473,392.338 350.5,392.5C 350.343,393.873 350.51,395.207 351,396.5C 361.42,405.285 372.254,413.452 383.5,421C 388.667,426.833 394.167,432.333 400,437.5C 400.684,439.359 401.684,441.026 403,442.5C 409.631,448.067 415.131,454.401 419.5,461.5 Z"/></g>
<g><path style="opacity:0.93" fill="#39ff9b" d="M 336.5,398.5 C 363.859,419.853 391.525,440.853 419.5,461.5C 422.009,462.682 423.343,464.682 423.5,467.5C 393.5,445.167 363.5,422.833 333.5,400.5C 333.821,398.952 334.821,398.285 336.5,398.5 Z"/></g>
<g><path style="opacity:0.961" fill="#36ff98" d="M 333.5,400.5 C 363.5,422.833 393.5,445.167 423.5,467.5C 424.482,468.141 425.482,468.807 426.5,469.5C 440.551,488.93 452.551,509.596 462.5,531.5C 411.833,493.833 361.167,456.167 310.5,418.5C 312.591,416.543 314.591,414.377 316.5,412C 317.449,411.383 318.282,411.549 319,412.5C 320.833,410 322.667,407.5 324.5,405C 325.449,404.383 326.282,404.549 327,405.5C 328.191,402.466 330.358,400.799 333.5,400.5 Z"/></g>
<g><path style="opacity:0.978" fill="#33ff92" d="M 310.5,418.5 C 361.167,456.167 411.833,493.833 462.5,531.5C 464.284,533.958 466.117,536.958 468,540.5C 471.658,552.135 475.158,563.801 478.5,575.5C 417.167,529.5 355.833,483.5 294.5,437.5C 295.271,434.198 297.605,431.698 301.5,430C 300.448,428.284 301.114,427.284 303.5,427C 303.167,426.667 302.833,426.333 302.5,426C 305.692,423.972 308.359,421.472 310.5,418.5 Z"/></g>
<g><path style="opacity:0.834" fill="#31fe8e" d="M 294.5,437.5 C 355.833,483.5 417.167,529.5 478.5,575.5C 480.178,578.552 480.845,581.885 480.5,585.5C 453.815,565.809 427.148,546.142 400.5,526.5C 396.394,523.563 392.727,520.063 389.5,516C 388.062,515.781 386.729,515.281 385.5,514.5C 383.049,511.23 380.382,508.23 377.5,505.5C 376.271,504.719 374.938,504.219 373.5,504C 372.323,500.651 369.99,499.151 366.5,499.5C 365.587,497.165 364.253,494.999 362.5,493C 358.681,490.586 355.014,487.919 351.5,485C 350.207,484.51 348.873,484.343 347.5,484.5C 347.616,481.09 345.95,479.756 342.5,480.5C 342.191,477.654 340.525,476.154 337.5,476C 336.833,475 336.167,474 335.5,473C 323.496,465.839 312.163,457.673 301.5,448.5C 298.857,446.377 296.191,445.044 293.5,444.5C 292.167,441.862 292.5,439.529 294.5,437.5 Z"/></g>
<g><path style="opacity:0.089" fill="#29ff7b" d="M 244.5,493.5 C 245.872,494.512 247.205,495.512 248.5,496.5C 246.027,496.912 244.694,495.912 244.5,493.5 Z"/></g>
<g><path style="opacity:0.89" fill="#30fe8b" d="M 400.5,526.5 C 427.148,546.142 453.815,565.809 480.5,585.5C 483.454,593.804 485.12,602.471 485.5,611.5C 472.45,601.115 459.116,591.115 445.5,581.5C 444.235,580.521 442.901,579.521 441.5,578.5C 441.709,577.914 442.043,577.414 442.5,577C 438.954,572.59 434.954,568.09 430.5,563.5C 430.709,562.914 431.043,562.414 431.5,562C 429.469,559.757 427.136,557.923 424.5,556.5C 424.709,555.914 425.043,555.414 425.5,555C 422.797,551.962 419.797,549.295 416.5,547C 417.28,545.927 417.113,544.76 416,543.5C 413.669,541.34 411.169,539.34 408.5,537.5C 408.709,536.914 409.043,536.414 409.5,536C 406.296,532.964 403.296,529.797 400.5,526.5 Z"/></g>
<g><path style="opacity:0.799" fill="#2efe87" d="M 445.5,581.5 C 459.116,591.115 472.45,601.115 485.5,611.5C 487.172,621.74 487.839,632.073 487.5,642.5C 484.167,640.167 480.833,637.833 477.5,635.5C 475.096,631.027 472.096,625.86 468.5,620C 468.833,619.667 469.167,619.333 469.5,619C 467.321,618.558 466.655,617.558 467.5,616C 464.826,612.484 462.826,608.651 461.5,604.5C 460.5,604.5 459.5,604.5 458.5,604.5C 458.67,601.509 457.337,599.509 454.5,598.5C 454.709,597.914 455.043,597.414 455.5,597C 454.167,596 452.833,595 451.5,594C 451.833,593.667 452.167,593.333 452.5,593C 450.963,591.89 450.297,590.39 450.5,588.5C 449.5,588.5 448.5,588.5 447.5,588.5C 447.116,586.071 446.449,583.737 445.5,581.5 Z"/></g>
<g><path style="opacity:0.515" fill="#2cfe82" d="M 477.5,635.5 C 480.833,637.833 484.167,640.167 487.5,642.5C 487.5,644.167 487.5,645.833 487.5,647.5C 485.473,647.662 483.473,647.495 481.5,647C 481.833,646.667 482.167,646.333 482.5,646C 480.536,642.589 478.869,639.089 477.5,635.5 Z"/></g>
</svg>
