       <svg width="20" height="22" viewBox="0 0 20 22" fill="none" xmlns="http://www.w3.org/2000/svg">
                                    <path d="M12.4545 7.66667V3.5C12.4545 2.83696 12.1959 2.20107 11.7356 1.73223C11.2753 1.26339 10.651 1 10 1H3.45455C2.80356 1 2.17924 1.26339 1.71892 1.73223C1.2586 2.20107 1 2.83696 1 3.5V18.5C1 19.163 1.2586 19.7989 1.71892 20.2678C2.17924 20.7366 2.80356 21 3.45455 21H10C10.651 21 11.2753 20.7366 11.7356 20.2678C12.1959 19.7989 12.4545 19.163 12.4545 18.5V14.3333M8.36364 7.66667L5.09091 11M5.09091 11L8.36364 14.3333M5.09091 11H19" stroke="#FF0000" strokeWidth="2" strokeLinecap="round" strokeLinejoin="round" />
                                </svg>