 <svg width="26" height="19" viewBox="0 0 26 19" fill="none" xmlns="http://www.w3.org/2000/svg">
                                    <path d="M1 12H25M1 17.5H25M3.72727 1H22.2727C22.996 1 23.6897 1.28973 24.2012 1.80546C24.7127 2.32118 25 3.02065 25 3.75C25 4.47935 24.7127 5.17882 24.2012 5.69454C23.6897 6.21027 22.996 6.5 22.2727 6.5H3.72727C3.00396 6.5 2.31026 6.21027 1.7988 5.69454C1.28734 5.17882 1 4.47935 1 3.75C1 3.02065 1.28734 2.32118 1.7988 1.80546C2.31026 1.28973 3.00396 1 3.72727 1Z" stroke="#07C664" strokeWidth="2" strokeLinecap="round" strokeLinejoin="round" />
                                </svg>
