  <svg width="26" height="26" viewBox="0 0 26 26" fill="none" xmlns="http://www.w3.org/2000/svg">
                                    <path d="M20.9767 21.9666C20.045 20.7331 18.8397 19.7327 17.4556 19.0444C16.0715 18.356 14.5465 17.9985 13.0007 17.9999C11.4549 17.9985 9.92985 18.356 8.54576 19.0444C7.16167 19.7327 5.95632 20.7331 5.02467 21.9666M20.9767 21.9666C22.7947 20.3495 24.0768 18.2179 24.6556 15.8546C25.2343 13.4913 25.081 11.0079 24.216 8.7337C23.3509 6.45952 21.815 4.50203 19.8119 3.12084C17.8088 1.73964 15.4331 1 13 1C10.5669 1 8.19124 1.73964 6.18814 3.12084C4.18503 4.50203 2.64911 6.45952 1.78405 8.7337C0.918989 11.0079 0.765671 13.4913 1.34443 15.8546C1.92318 18.2179 3.20667 20.3495 5.02467 21.9666M20.9767 21.9666C18.782 23.9242 15.9415 25.0042 13.0007 25C10.0594 25.0045 7.21965 23.9245 5.02467 21.9666M17.0007 9.99975C17.0007 11.0606 16.5792 12.0781 15.8291 12.8282C15.0789 13.5784 14.0615 13.9998 13.0007 13.9998C11.9398 13.9998 10.9224 13.5784 10.1722 12.8282C9.42209 12.0781 9.00067 11.0606 9.00067 9.99975C9.00067 8.93887 9.42209 7.92143 10.1722 7.17128C10.9224 6.42112 11.9398 5.99969 13.0007 5.99969C14.0615 5.99969 15.0789 6.42112 15.8291 7.17128C16.5792 7.92143 17.0007 8.93887 17.0007 9.99975Z" stroke="#00FF77" strokeWidth="2" strokeLinecap="round" strokeLinejoin="round" />
                                </svg>