<svg width="25" height="22" viewBox="0 0 25 22" fill="none" xmlns="http://www.w3.org/2000/svg">
<path d="M17.6323 7.786H24L19.9424 3.92848C18.636 2.68732 17.0088 1.79477 15.2243 1.34056C13.4397 0.886349 11.5608 0.886482 9.77634 1.34095C7.99188 1.79541 6.36479 2.68819 5.05864 3.92953C3.75249 5.17087 2.81332 6.71703 2.33553 8.41256M1.00128 20.2639V14.214M1.00128 14.214H7.36898M1.00128 14.214L5.05762 18.0715C6.36397 19.3127 7.9912 20.2052 9.77573 20.6594C11.5603 21.1137 13.4392 21.1135 15.2237 20.6591C17.0081 20.2046 18.6352 19.3118 19.9414 18.0705C21.2475 16.8291 22.1867 15.283 22.6645 13.5874M24 1.73612V7.78358" stroke="#04E46E" strokeWidth="2" strokeLinecap="round" strokeLinejoin="round"/>
</svg>
