<svg width="18" height="19" viewBox="0 0 18 19" fill="none" xmlns="http://www.w3.org/2000/svg">
<path d="M1.67503e-08 1.43234C1.67503e-08 0.344145 1.19693 -0.344875 2.17588 0.178882L17.2386 8.24753C17.4692 8.37088 17.6615 8.55229 17.7954 8.77279C17.9293 8.99329 18 9.24479 18 9.50098C18 9.75718 17.9293 10.0087 17.7954 10.2292C17.6615 10.4497 17.4692 10.6311 17.2386 10.7544L2.17588 18.8231C1.95227 18.9428 1.70048 19.0037 1.44533 18.9998C1.19019 18.9959 0.94049 18.9273 0.720856 18.8008C0.501223 18.6743 0.319233 18.4942 0.192827 18.2783C0.0664209 18.0624 -3.85207e-05 17.8182 1.67503e-08 17.5696V1.43234Z" fill="#F5F5F5"/>
</svg>
