            <svg width="26" height="22" viewBox="0 0 26 22" fill="none" xmlns="http://www.w3.org/2000/svg">
                                    <path d="M1 18.3863C7.5669 18.381 14.1052 19.2431 20.4425 20.9497C21.3372 21.1913 22.2308 20.5325 22.2308 19.6125V18.3863M2.84615 1V1.91507C2.84615 2.15776 2.7489 2.39051 2.57579 2.56212C2.40268 2.73373 2.16789 2.83014 1.92308 2.83014H1M1 2.83014V2.3726C1 1.61493 1.62031 1 2.38462 1H23.1538M1 2.83014V13.811M23.1538 1V1.91507C23.1538 2.42019 23.5674 2.83014 24.0769 2.83014H25M23.1538 1H23.6154C24.3797 1 25 1.61493 25 2.3726V14.2685C25 15.0262 24.3797 15.6411 23.6154 15.6411H23.1538M1 13.811V14.2685C1 14.6325 1.14588 14.9817 1.40554 15.2391C1.66521 15.4965 2.01739 15.6411 2.38462 15.6411H2.84615M1 13.811H1.92308C2.16789 13.811 2.40268 13.9074 2.57579 14.079C2.7489 14.2506 2.84615 14.4833 2.84615 14.726V15.6411M23.1538 15.6411V14.726C23.1538 14.4833 23.2511 14.2506 23.4242 14.079C23.5973 13.9074 23.8321 13.811 24.0769 13.811H25M23.1538 15.6411H2.84615M16.6923 8.32055C16.6923 9.29132 16.3033 10.2223 15.6109 10.9088C14.9184 11.5952 13.9793 11.9808 13 11.9808C12.0207 11.9808 11.0816 11.5952 10.3891 10.9088C9.6967 10.2223 9.30769 9.29132 9.30769 8.32055C9.30769 7.34979 9.6967 6.41878 10.3891 5.73235C11.0816 5.04591 12.0207 4.66028 13 4.66028C13.9793 4.66028 14.9184 5.04591 15.6109 5.73235C16.3033 6.41878 16.6923 7.34979 16.6923 8.32055ZM20.3846 8.32055H20.3945V8.33031H20.3846V8.32055ZM5.61538 8.32055H5.62523V8.33031H5.61538V8.32055Z" stroke="#00FF77" strokeWidth="2" strokeLinecap="round" strokeLinejoin="round" />
                                </svg>