<svg width="17" height="17" viewBox="0 0 17 17" fill="none" xmlns="http://www.w3.org/2000/svg">
<path d="M8.06452 0C3.62903 0 0 3.62903 0 8.06452C0 12.5 3.62903 16.129 8.06452 16.129C12.5 16.129 16.129 12.5 16.129 8.06452C16.129 3.62903 12.5 0 8.06452 0ZM8.06452 14.5161C4.50806 14.5161 1.6129 11.621 1.6129 8.06452C1.6129 4.50806 4.50806 1.6129 8.06452 1.6129C11.621 1.6129 14.5161 4.50806 14.5161 8.06452C14.5161 11.621 11.621 14.5161 8.06452 14.5161ZM11.7661 4.5L6.45161 9.81452L4.3629 7.73387C3.62903 7.25806 2.82258 8.06452 3.22581 8.87097L6.45161 12.0968L12.9032 5.64516C13.3065 4.83871 12.5 4.03226 11.7661 4.5Z" fill="#64BD73"/>
</svg>
