<svg width="16" height="16" viewBox="0 0 16 16" fill="none" xmlns="http://www.w3.org/2000/svg">
<path d="M3.58632 1.06676C4.34438 0.582887 5.19115 0.228048 6.10244 0.0183705C6.22023 -0.00723548 6.34226 -0.00605917 6.45953 0.0218126C6.5768 0.0496843 6.68631 0.10354 6.77997 0.179402C6.87364 0.255265 6.94907 0.351197 7.0007 0.460116C7.05233 0.569036 7.07883 0.68816 7.07825 0.808693C7.07825 1.1716 6.83632 1.51031 6.48148 1.59095C5.74761 1.75224 5.05406 2.04256 4.44115 2.43773C4.12664 2.63934 3.72341 2.57482 3.45728 2.30869C3.09438 1.94579 3.15083 1.34095 3.58632 1.06676ZM0.812121 7.07482C0.295993 7.07482 -0.0991688 6.59902 0.0217991 6.09902C0.231477 5.19579 0.586315 4.34902 1.07019 3.58289C1.34438 3.1474 1.95728 3.09095 2.32019 3.45385C2.57825 3.71192 2.64277 4.12321 2.44922 4.43773C2.05406 5.05869 1.76373 5.74418 1.60244 6.47805C1.55583 6.65124 1.45281 6.80395 1.30968 6.91204C1.16654 7.02012 0.99146 7.0774 0.812121 7.07482ZM2.32019 12.3087C1.95728 12.6716 1.34438 12.6151 1.07019 12.1877C0.586315 11.4297 0.231477 10.5829 0.0217991 9.67966C-0.0911045 9.17966 0.304057 8.70385 0.812121 8.70385C1.17502 8.70385 1.51374 8.94579 1.59438 9.30063C1.75567 10.0345 2.05406 10.72 2.44115 11.341C2.64277 11.6393 2.57825 12.0506 2.32019 12.3087ZM7.07825 14.9539C7.07825 15.47 6.60244 15.8651 6.10244 15.7442C5.19922 15.5345 4.35244 15.1797 3.59438 14.6958C3.1589 14.4216 3.10244 13.8087 3.46535 13.4458C3.72341 13.1877 4.1347 13.1232 4.44115 13.3248C5.05406 13.72 5.73954 14.0103 6.48148 14.1716C6.83632 14.2522 7.07825 14.5829 7.07825 14.9539ZM8.69115 14.9539C8.69115 15.47 9.16696 15.8651 9.66696 15.7522C13.2637 14.9377 15.9492 11.728 15.9492 7.88127C15.9492 4.0345 13.2637 0.824822 9.66696 0.0183705C9.54918 -0.00723548 9.42715 -0.00605917 9.30988 0.0218126C9.19261 0.0496843 9.0831 0.10354 8.98943 0.179402C8.89576 0.255265 8.82033 0.351197 8.76871 0.460116C8.71708 0.569036 8.69058 0.68816 8.69115 0.808693C8.69115 1.17966 8.94115 1.51031 9.30406 1.59095C12.1831 2.23611 14.3363 4.80869 14.3363 7.88127C14.3363 10.9539 12.1831 13.5264 9.30406 14.1716C8.94115 14.2522 8.69115 14.5829 8.69115 14.9539Z" fill="#8074E0"/>
</svg>
